<?xml version="1.0" encoding="UTF-8"?>
<svg width="140px" height="80px" viewBox="0 0 140 80" version="1.1" xmlns="http://www.w3.org/2000/svg" xmlns:xlink="http://www.w3.org/1999/xlink">
    <!-- Generator: Sketch 52.5 (67469) - http://www.bohemiancoding.com/sketch -->
    <title>im/logo-pay/paypal</title>
    <desc>Created with Sketch.</desc>
    <g id="im/logo-pay/paypal" stroke="none" stroke-width="1" fill="none" fill-rule="evenodd">
        <path d="M54.211,30.749 L47.372,30.749 C46.904,30.749 46.506,31.089 46.433,31.551 L43.667,49.088 C43.612,49.434 43.88,49.746 44.231,49.746 L47.496,49.746 C47.964,49.746 48.362,49.406 48.435,48.943 L49.181,44.213 C49.253,43.75 49.652,43.41 50.119,43.41 L52.284,43.41 C56.789,43.41 59.389,41.23 60.068,36.91 C60.374,35.02 60.081,33.535 59.196,32.495 C58.224,31.353 56.5,30.749 54.211,30.749 Z M55,37.154 C54.626,39.608 52.751,39.608 50.938,39.608 L49.906,39.608 L50.63,35.025 C50.673,34.748 50.913,34.544 51.193,34.544 L51.666,34.544 C52.901,34.544 54.066,34.544 54.668,35.248 C55.027,35.668 55.137,36.292 55,37.154 Z" id="Shape" fill="#253B80" fill-rule="nonzero"/>
        <path d="M74.654,37.075 L71.379,37.075 C71.1,37.075 70.859,37.279 70.816,37.556 L70.671,38.472 L70.442,38.14 C69.733,37.111 68.152,36.767 66.574,36.767 C62.955,36.767 59.864,39.508 59.262,43.353 C58.949,45.271 59.394,47.105 60.482,48.384 C61.48,49.56 62.908,50.05 64.607,50.05 C67.523,50.05 69.14,48.175 69.14,48.175 L68.994,49.085 C68.939,49.433 69.207,49.745 69.556,49.745 L72.506,49.745 C72.975,49.745 73.371,49.405 73.445,48.942 L75.215,37.733 C75.271,37.388 75.004,37.075 74.654,37.075 Z M70.089,43.449 C69.773,45.32 68.288,46.576 66.394,46.576 C65.443,46.576 64.683,46.271 64.195,45.693 C63.711,45.119 63.527,44.302 63.681,43.392 C63.976,41.537 65.486,40.24 67.351,40.24 C68.281,40.24 69.037,40.549 69.535,41.132 C70.034,41.721 70.232,42.543 70.089,43.449 Z" id="Shape" fill="#253B80" fill-rule="nonzero"/>
        <path d="M92.096,37.075 L88.805,37.075 C88.491,37.075 88.196,37.231 88.018,37.492 L83.479,44.178 L81.555,37.753 C81.434,37.351 81.063,37.075 80.643,37.075 L77.409,37.075 C77.016,37.075 76.743,37.459 76.868,37.829 L80.493,48.467 L77.085,53.278 C76.817,53.657 77.087,54.178 77.55,54.178 L80.837,54.178 C81.149,54.178 81.441,54.026 81.618,53.77 L92.564,37.97 C92.826,37.592 92.557,37.075 92.096,37.075 Z" id="Shape" fill="#253B80" fill-rule="nonzero"/>
        <path d="M102.992,30.749 L96.152,30.749 C95.685,30.749 95.287,31.089 95.214,31.551 L92.448,49.088 C92.393,49.434 92.661,49.746 93.01,49.746 L96.52,49.746 C96.846,49.746 97.125,49.508 97.176,49.184 L97.961,44.213 C98.033,43.75 98.432,43.41 98.899,43.41 L101.063,43.41 C105.569,43.41 108.168,41.23 108.848,36.91 C109.155,35.02 108.86,33.535 107.975,32.495 C107.004,31.353 105.281,30.749 102.992,30.749 Z M103.781,37.154 C103.408,39.608 101.533,39.608 99.719,39.608 L98.688,39.608 L99.413,35.025 C99.456,34.748 99.694,34.544 99.975,34.544 L100.448,34.544 C101.682,34.544 102.848,34.544 103.45,35.248 C103.809,35.668 103.918,36.292 103.781,37.154 Z" id="Shape" fill="#179BD7" fill-rule="nonzero"/>
        <path d="M123.434,37.075 L120.161,37.075 C119.88,37.075 119.641,37.279 119.599,37.556 L119.454,38.472 L119.224,38.14 C118.515,37.111 116.935,36.767 115.357,36.767 C111.738,36.767 108.648,39.508 108.046,43.353 C107.734,45.271 108.177,47.105 109.265,48.384 C110.265,49.56 111.691,50.05 113.39,50.05 C116.306,50.05 117.923,48.175 117.923,48.175 L117.777,49.085 C117.722,49.433 117.99,49.745 118.341,49.745 L121.29,49.745 C121.757,49.745 122.155,49.405 122.228,48.942 L123.999,37.733 C124.053,37.388 123.785,37.075 123.434,37.075 Z M118.869,43.449 C118.555,45.32 117.068,46.576 115.174,46.576 C114.225,46.576 113.463,46.271 112.975,45.693 C112.491,45.119 112.309,44.302 112.461,43.392 C112.758,41.537 114.266,40.24 116.131,40.24 C117.061,40.24 117.817,40.549 118.315,41.132 C118.816,41.721 119.014,42.543 118.869,43.449 Z" id="Shape" fill="#179BD7" fill-rule="nonzero"/>
        <path d="M127.295,31.23 L124.488,49.088 C124.433,49.434 124.701,49.746 125.05,49.746 L127.872,49.746 C128.341,49.746 128.739,49.406 128.811,48.943 L131.579,31.407 C131.634,31.061 131.366,30.748 131.017,30.748 L127.857,30.748 C127.578,30.749 127.338,30.953 127.295,31.23 Z" id="Shape" fill="#179BD7" fill-rule="nonzero"/>
        <path d="M15.266,53.154 L15.789,49.832 L14.624,49.805 L9.061,49.805 L12.927,25.292 C12.939,25.218 12.978,25.149 13.035,25.1 C13.092,25.051 13.165,25.024 13.241,25.024 L22.621,25.024 C25.735,25.024 27.884,25.672 29.006,26.951 C29.532,27.551 29.867,28.178 30.029,28.868 C30.199,29.592 30.202,30.457 30.036,31.512 L30.024,31.589 L30.024,32.265 L30.55,32.563 C30.993,32.798 31.345,33.067 31.615,33.375 C32.065,33.888 32.356,34.54 32.479,35.313 C32.606,36.108 32.564,37.054 32.356,38.125 C32.116,39.357 31.728,40.43 31.204,41.308 C30.722,42.117 30.108,42.788 29.379,43.308 C28.683,43.802 27.856,44.177 26.921,44.417 C26.015,44.653 24.982,44.772 23.849,44.772 L23.119,44.772 C22.597,44.772 22.09,44.96 21.692,45.297 C21.293,45.641 21.029,46.111 20.948,46.625 L20.893,46.924 L19.969,52.779 L19.927,52.994 C19.916,53.062 19.897,53.096 19.869,53.119 C19.844,53.14 19.808,53.154 19.773,53.154 L15.266,53.154 Z" id="Shape" fill="#253B80" fill-rule="nonzero"/>
        <path d="M31.048,31.667 C31.02,31.846 30.988,32.029 30.952,32.217 C29.715,38.568 25.483,40.762 20.078,40.762 L17.326,40.762 C16.665,40.762 16.108,41.242 16.005,41.894 L14.596,50.83 L14.197,53.363 C14.13,53.791 14.46,54.177 14.892,54.177 L19.773,54.177 C20.351,54.177 20.842,53.757 20.933,53.187 L20.981,52.939 L21.9,47.107 L21.959,46.787 C22.049,46.215 22.541,45.795 23.119,45.795 L23.849,45.795 C28.578,45.795 32.28,43.875 33.362,38.319 C33.814,35.998 33.58,34.06 32.384,32.697 C32.022,32.286 31.573,31.945 31.048,31.667 Z" id="Shape" fill="#179BD7" fill-rule="nonzero"/>
        <path d="M29.754,31.151 C29.565,31.096 29.37,31.046 29.17,31.001 C28.969,30.957 28.763,30.918 28.551,30.884 C27.809,30.764 26.996,30.707 26.125,30.707 L18.773,30.707 C18.592,30.707 18.42,30.748 18.266,30.822 C17.927,30.985 17.675,31.306 17.614,31.699 L16.05,41.605 L16.005,41.894 C16.108,41.242 16.665,40.762 17.326,40.762 L20.078,40.762 C25.483,40.762 29.715,38.567 30.952,32.217 C30.989,32.029 31.02,31.846 31.048,31.667 C30.735,31.501 30.396,31.359 30.031,31.238 C29.941,31.208 29.848,31.179 29.754,31.151 Z" id="Shape" fill="#222D65" fill-rule="nonzero"/>
        <path d="M17.614,31.699 C17.675,31.306 17.927,30.985 18.266,30.823 C18.421,30.749 18.592,30.708 18.773,30.708 L26.125,30.708 C26.996,30.708 27.809,30.765 28.551,30.885 C28.763,30.919 28.969,30.958 29.17,31.002 C29.37,31.047 29.565,31.097 29.754,31.152 C29.848,31.18 29.941,31.209 30.032,31.238 C30.397,31.359 30.736,31.502 31.049,31.667 C31.417,29.32 31.046,27.722 29.777,26.275 C28.378,24.682 25.853,24 22.622,24 L13.242,24 C12.582,24 12.019,24.48 11.917,25.133 L8.01,49.898 C7.933,50.388 8.311,50.83 8.805,50.83 L14.596,50.83 L16.05,41.605 L17.614,31.699 Z" id="Shape" fill="#253B80" fill-rule="nonzero"/>
    </g>
</svg>